<svg xmlns="http://www.w3.org/2000/svg" width="900" height="600"><rect width="900" height="600" x="0" y="0" fill="#FFFFFF" id="background"/><g id="viz"><g transform="translate(0,0)"><g transform="translate(10,20)"><g><path fill="#9467bd" d="M0,539.679C6.372208464449036,538.7167971771266,12.744416928898072,537.7545943542534,19.117909648235223,537.2605C25.491402367572373,536.7664056457465,31.866179341797626,536.7404197601129,38.235819296470446,535.78C44.605459251143266,534.819580239887,50.96996218626366,532.9247266052948,57.353728944705665,530.985C63.73749570314767,529.0452733947052,70.14052628491125,527.0606738187075,76.5240164275936,522.879C82.90750657027594,518.6973261812925,89.27145627387712,512.3185781198752,95.64192607582882,511.077C102.01239587778052,509.8354218801249,108.38938577808266,513.7310137017923,114.75983572406406,515.7284999999999C121.13028567004547,517.7259862982075,127.49419566170621,517.825367072955,133.87774537229927,516.88C140.26129508289233,515.934632927045,146.66448451241757,513.9445180063874,153.0480328551872,511.847C159.4315811979568,509.74948199361256,165.7954884539708,507.54456090149523,172.16594250342243,509.28249999999997C178.53639655287407,511.0204390985047,184.9133973957633,516.7012383876315,191.28385215165764,495.0165C197.65430690755198,473.33176161236844,204.01821557645158,424.2814855479787,210.40176179989288,406.28549999999996C216.78530802333418,388.2895144520212,223.18849180131735,401.34781942045345,229.5720492827808,405.3125C235.95560676424424,409.27718057954655,242.31953794918815,404.1482367702076,248.689958931016,395.57550000000003C255.06037991284387,387.0027632297925,261.4372906915558,374.9862334987166,267.80786857925125,363.26C274.1784464669467,351.53376650128337,280.5426914636255,340.09782923492565,286.92577822748643,338.0855C293.3088649913474,336.0731707650744,299.71079352239025,343.48444956158085,306.0938833005972,326.69300000000004C312.4769730788042,309.90155043841924,318.8412241041749,268.9073725187512,325.2117929488324,293.0615C331.5823617934899,317.2156274812489,337.95924845743394,406.5180603634148,344.32970259706764,436.85099999999994C350.70015673670133,467.1839396365851,357.0641783520246,438.54738602758914,363.4476122453029,430.166C369.83104613858114,421.78461397241085,376.2338923098145,433.6583955262282,382.6178997281908,435.871C389.00190714656713,438.08360447377174,395.3670758120862,430.6350318674975,401.7379917862032,433.841C408.1089077603202,437.0469681325025,414.4855710430349,450.9074770037816,420.85590143443847,458.88000000000005C427.22623182584204,466.8525229962185,433.5902293259342,468.93706011737623,439.97381108267365,473.475C446.3573928394131,478.0129398826238,452.7605588527997,485.0042825267134,459.1440985655616,486.285C465.5276382783235,487.56571747328667,471.891551690461,483.1358097757705,478.26200821379683,485.13C484.6324647371327,487.1241902242295,491.0094643716666,495.54247837020444,497.379917862032,503.89C503.75037135239745,512.2375216297955,510.1142786985944,520.5142767434116,516.4978275102673,524.1725C522.8813763219401,527.8307232565884,529.2845665990886,526.8704146561491,535.6681149931552,531.491C542.0516633872218,536.1115853438508,548.4155698982061,546.3130646319917,554.7860246413903,550.068C561.1564793845746,553.8229353680083,567.5334823599585,551.1313268158841,573.9039342896256,551.7044999999999C580.2743862192926,552.2776731841158,586.6382871032421,556.115628104472,593.0218439378608,557.929C599.4054007724795,559.742371895528,605.8086135577676,559.5311607662276,612.1921314207488,559.5415C618.57564928373,559.5518392337725,624.9394722244043,559.7837288306177,631.310041068984,559.8705C637.6806099135637,559.9572711693822,644.0579246620489,559.8989239113014,650.4279507172192,559.895C656.7979767723896,559.8910760886986,663.1607141342446,559.9415755241768,669.5436779556773,559.9685000000001C675.9266417771099,559.9954244758234,682.3298320581199,559.9987739919919,688.7139654385652,560C695.0980988190105,560.0012260080081,701.4631752988911,560.0003285078557,707.8340574965775,560C714.204939694264,559.9996714921443,720.5816276097567,559.9999119765852,726.9519671448128,560C733.3223066798689,560.0000880234148,739.6862978344881,560.0000235858031,746.069876793048,560C752.453455751608,559.9999764141969,758.856622514109,559.9999936802022,765.240164275936,560C771.623706037763,560.0000063197978,777.9876227989164,560.0000016933876,784.3580739241711,560C790.7285250494258,559.9999983066124,797.1055105387825,559.999999546247,803.4759835724064,560C809.8464566060304,560.000000453753,816.2104171839218,560.0000001216246,822.5938932206417,560C828.9773692573616,559.9999998783754,835.3803607529096,559.9999999672548,841.7641807035295,560C848.1480006541494,560.0000000327452,854.5126490598411,560.0000000093557,860.8820903517648,560C867.2515316436884,559.9999999906443,873.6257658218442,559.9999999953221,880,560L880,560C873.6257658218444,560.000000000166,867.2515316436885,560.0000000003321,860.8820903517648,560C854.512649059841,559.9999999996679,848.1480006541493,559.9999999988379,841.7641807035295,560C835.3803607529097,560.0000000011621,828.9773692573615,560.0000000043165,822.5938932206417,560C816.2104171839219,559.9999999956835,809.8464566060304,559.9999999838961,803.4759835724064,560C797.1055105387825,560.0000000161039,790.728525049426,560.0000000600996,784.3580739241711,560C777.9876227989162,559.9999999399004,771.623706037763,559.9999997757055,765.240164275936,560C758.856622514109,560.0000002242945,752.453455751608,560.0000008370779,746.069876793048,560C739.6862978344881,559.9999991629221,733.3223066798687,559.9999968759832,726.9519671448128,560C720.5816276097569,560.0000031240168,714.2049396942642,560.0000116589889,707.8340574965775,560C701.4631752988909,559.9999883410111,695.0980988190105,559.9999564880612,688.7139654385652,560C682.3298320581199,560.0000435119388,675.9266417771098,560.0001623887663,669.5436779556773,560C663.1607141342447,559.9998376112337,656.7979767723895,559.9993939568734,650.4279507172192,560C644.057924662049,560.0006060431266,637.6806099135637,560.0022617837406,631.310041068984,560C624.9394722244043,559.9977382162594,618.57564928373,559.9915589081647,612.1921314207488,560C605.8086135577676,560.0084410918353,599.4054007724797,560.0315025836007,593.0218439378608,558.7585C586.638287103242,557.4854974163993,580.2743862192925,554.9164307574323,573.9039342896256,555.4879999999999C567.5334823599586,556.0595692425676,561.1564793845746,559.7717743866699,554.7860246413903,557.4110000000001C548.4155698982061,555.0502256133302,542.0516633872215,546.6164716958878,535.6681149931552,544.21C529.2845665990889,541.8035283041123,522.8813763219401,545.4243388297793,516.4978275102673,546.2435C510.1142786985944,547.0626611702207,503.75037135239734,545.0801729849948,497.379917862032,542.726C491.0094643716667,540.3718270150052,484.6324647371326,537.645969230242,478.26200821379683,538.1305C471.8915516904611,538.6150307697579,465.52763827832354,542.3099500940375,459.1440985655616,544.2520000000001C452.76055885279965,546.1940499059626,446.35739283941297,546.3832303936082,439.97381108267365,546.7860000000001C433.59022932593433,547.1887696063919,427.22623182584204,547.8051283315302,420.85590143443847,547.7765C414.4855710430349,547.7478716684699,408.1089077603201,547.0742562802712,401.7379917862032,547.6365C395.36707581208634,548.1987437197287,389.00190714656713,549.9968465473846,382.6178997281908,548.3715000000001C376.2338923098145,546.7461534526155,369.83104613858114,541.6973575301905,363.4476122453029,549.6945000000001C357.0641783520246,557.6916424698096,350.70015673670133,578.7347233318535,344.32970259706764,550.601C337.95924845743394,522.4672766681465,331.58236179348984,445.1567491423953,325.2117929488324,423.62200000000007C318.84122410417496,402.08725085760483,312.47697307880406,436.32828009856576,306.0938833005972,450.607C299.71079352239036,464.8857199014343,293.3088649913474,459.202130463342,286.92577822748643,458.5695C280.5426914636255,457.93686953665804,274.17844646694664,462.3551980480662,267.80786857925125,467.35C261.43729069155586,472.34480195193385,255.06037991284393,477.916077344393,248.689958931016,483.058C242.3195379491881,488.199922655607,235.95560676424427,492.91249257436164,229.5720492827808,489.715C223.18849180131733,486.5175074256383,216.78530802333418,475.40995235816007,210.40176179989288,489.722C204.01821557645158,504.0340476418399,197.654306907552,543.7656979929978,191.28385215165764,558.398C184.91339739576327,573.0303020070022,178.53639655287404,562.563255669849,172.16594250342243,559C165.79548845397082,555.436744330151,159.43158119795683,558.7772793276058,153.0480328551872,560C146.66448451241754,561.2227206723942,140.26129508289227,560.3276270197275,133.87774537229927,560C127.49419566170627,559.6723729802725,121.1302856700455,559.9122125934844,114.75983572406406,560C108.38938577808263,560.0877874065156,102.01239587778048,560.0235226063352,95.64192607582882,560C89.27145627387716,559.9764773936648,82.90750657027597,559.9936969811754,76.5240164275936,560C70.14052628491122,560.0063030188246,63.737495703147644,560.0016894689634,57.353728944705665,560C50.969962186263686,559.9983105310366,44.60545925114327,559.9995451429714,38.235819296470446,560C31.866179341797615,560.0004548570286,25.491402367572366,560.0001299591511,19.117909648235223,560C12.74441692889808,559.9998700408489,6.37220846444904,559.9999350204245,0,560Z"><title>Tape</title></path><path fill="#1f77b4" d="M0,560C6.372208464449036,560.0000013421092,12.744416928898072,560.0000026842183,19.117909648235223,560C25.491402367572373,559.9999973157817,31.866179341797626,559.9999906052358,38.235819296470446,560C44.605459251143266,560.0000093947642,50.96996218626366,560.0000348948388,57.353728944705665,560C63.73749570314767,559.9999651051612,70.14052628491125,559.9998698154089,76.5240164275936,560C82.90750657027594,560.0001301845911,89.27145627387712,560.0004858435258,95.64192607582882,560C102.01239587778052,559.9995141564742,108.38938577808266,559.9981868104877,114.75983572406406,560C121.13028567004547,560.0018131895123,127.49419566170621,560.0067669145233,133.87774537229927,560C140.26129508289233,559.9932330854767,146.66448451241757,559.9747455314189,153.0480328551872,560C159.4315811979568,560.0252544685811,165.7954884539708,560.0942509598015,172.16594250342243,560C178.53639655287407,559.9057490401985,184.9133973957633,559.6482506293754,191.28385215165764,559.398C197.65430690755198,559.1477493706246,204.01821557645158,558.9047465226968,210.40176179989288,556.3845C216.78530802333418,553.8642534773032,223.18849180131735,549.0667632798372,229.5720492827808,546.3675C235.95560676424424,543.6682367201627,242.31953794918815,543.0672003579541,248.689958931016,527.4465C255.06037991284387,511.825799642046,261.4372906915558,481.1854352883465,267.80786857925125,468.35C274.1784464669467,455.5145647116535,280.5426914636255,460.4840584886597,286.92577822748643,459.5695C293.3088649913474,458.6549415113403,299.71079352239025,451.8563307570147,306.0938833005972,451.607C312.4769730788042,451.35766924298537,318.8412241041749,457.65761848328134,325.2117929488324,424.62200000000007C331.5823617934899,391.5863815167188,337.95924845743394,319.2151953098603,344.32970259706764,282.80299999999994C350.70015673670133,246.3908046901396,357.0641783520246,245.9376002772774,363.4476122453029,241.16000000000003C369.83104613858114,236.38239972272265,376.2338923098145,227.28040358103033,382.6178997281908,205.36900000000009C389.00190714656713,183.45759641896984,395.3670758120862,148.7367853986017,401.7379917862032,134.6199999999999C408.1089077603202,120.50321460139807,414.4855710430349,126.99045482456253,420.85590143443847,125.78950000000009C427.22623182584204,124.58854517543764,433.5902293259342,115.69939530314831,439.97381108267365,118.31699999999996C446.3573928394131,120.93460469685162,452.7605588527997,135.05896396284425,459.1440985655616,128.71200000000005C465.5276382783235,122.36503603715583,471.891551690461,95.54674884547484,478.26200821379683,77.10799999999995C484.6324647371327,58.66925115452505,491.0094643716666,48.61004065525619,497.379917862032,46.53549999999994C503.75037135239745,44.46095934474369,510.1142786985944,50.37108853350004,516.4978275102673,55.67049999999998C522.8813763219401,60.96991146649992,529.2845665990886,65.65860521074339,535.6681149931552,75.88300000000007C542.0516633872218,86.10739478925674,548.4155698982061,101.86749062352663,554.7860246413903,115.447C561.1564793845746,129.02650937647337,567.5334823599585,140.42543229515013,573.9039342896256,140.096C580.2743862192926,139.76656770484988,586.6382871032421,127.70878019587278,593.0218439378608,122.92149999999992C599.4054007724795,118.13421980412707,605.8086135577676,120.61744692135835,612.1921314207488,124.85350000000003C618.57564928373,129.0895530786417,624.9394722244043,135.07843211869374,631.310041068984,143.41750000000002C637.6806099135637,151.7565678813063,644.0579246620489,162.44582460386678,650.4279507172192,182.2185C656.7979767723896,201.99117539613323,663.1607141342446,230.84726946583913,669.5436779556773,247.81199999999995C675.9266417771099,264.7767305341608,682.3298320581199,269.8500975327763,688.7139654385652,281.915C695.0980988190105,293.9799024672237,701.4631752988911,313.03634040305553,707.8340574965775,310.517C714.204939694264,307.99765959694446,720.5816276097567,283.9025408550014,726.9519671448128,306.254C733.3223066798689,328.60545914499863,739.6862978344881,397.40349617693875,746.069876793048,417.01697761695C752.453455751608,436.63045905696123,758.856622514109,407.0593849050437,765.240164275936,412.981865771325C771.623706037763,418.90434663760624,777.9876227989164,460.32038252208656,784.3580739241711,477.00594828271494C790.7285250494258,493.6915140433433,797.1055105387825,485.64660968011947,803.4759835724064,485.590169710525C809.8464566060304,485.53372974093054,816.2104171839218,493.46575416496546,822.5938932206417,496.04693350188C828.9773692573616,498.62811283879455,835.3803607529096,495.8584470885885,841.7641807035295,497.45667065028C848.1480006541494,499.0548942119715,854.5126490598411,505.0210070855604,860.8820903517648,507.5204459807C867.2515316436884,510.0198848758396,873.6257658218442,509.0526497925298,880,508.08541470921995L880,529.61478134667C873.6257658218444,530.4072357831371,867.2515316436885,531.1996902196043,860.8820903517648,531.99949871695C854.512649059841,532.7993072142957,848.1480006541493,533.6064697725201,841.7641807035295,534.54450334632C835.3803607529097,535.4825369201199,828.9773692573615,536.5514415094957,822.5938932206417,535.67514840655C816.2104171839219,534.7988553036042,809.8464566060304,531.9773645083372,803.4759835724064,536.243345961475C797.1055105387825,540.5093274146128,790.728525049426,551.8627811161552,784.3580739241711,539.32795575551C777.9876227989162,526.7931303948646,771.623706037763,490.37002597203156,765.240164275936,488.03383009523503C758.856622514109,485.6976342184385,752.453455751608,517.4483468876783,746.069876793048,504.173357835025C739.6862978344881,490.8983687823717,733.3223066798687,432.5976780078253,726.9519671448128,414.95349999999996C720.5816276097569,397.3093219921746,714.2049396942642,420.32165675107007,707.8340574965775,429.307C701.4631752988909,438.29234324892997,695.0980988190105,433.2506949878941,688.7139654385652,433.2655C682.3298320581199,433.2803050121058,675.9266417771098,438.3515632973531,669.5436779556773,439.53849999999994C663.1607141342447,440.7254367026468,656.7979767723895,438.0280518226932,650.4279507172192,443.602C644.057924662049,449.17594817730674,637.6806099135637,463.0212294118743,631.310041068984,471.9205C624.9394722244043,480.8197705881257,618.57564928373,484.7730305298097,612.1921314207488,493.79200000000003C605.8086135577676,502.81096947019034,599.4054007724797,516.8956484688865,593.0218439378608,524.655C586.638287103242,532.4143515311134,580.2743862192925,533.8483755946445,573.9039342896256,535.428C567.5334823599586,537.0076244053555,561.1564793845746,538.7328491525354,554.7860246413903,537.6765C548.4155698982061,536.6201508474646,542.0516633872215,532.7822277952137,535.6681149931552,530.491C529.2845665990889,528.1997722047863,522.8813763219401,527.4552396666098,516.4978275102673,523.1725C510.1142786985944,518.8897603333902,503.75037135239734,511.06881353834626,497.379917862032,502.89C491.0094643716667,494.7111864616537,484.6324647371326,486.17450618000527,478.26200821379683,484.13C471.8915516904611,482.0854938199947,465.52763827832354,486.53316174163245,459.1440985655616,485.285C452.76055885279965,484.0368382583676,446.35739283941297,477.0928468534648,439.97381108267365,472.475C433.59022932593433,467.85715314653527,427.22623182584204,465.56545084450823,420.85590143443847,457.88000000000005C414.4855710430349,450.19454915549187,408.1089077603201,437.1153497685023,401.7379917862032,432.841C395.36707581208634,428.5666502314977,389.00190714656713,433.09715008148277,382.6178997281908,434.871C376.2338923098145,436.6448499185172,369.83104613858114,435.6620499055662,363.4476122453029,429.166C357.0641783520246,422.6699500944338,350.70015673670133,410.66065029625196,344.32970259706764,435.85099999999994C337.95924845743394,461.0413497037479,331.58236179348984,523.4313489094258,325.2117929488324,545.638C318.84122410417496,567.8446510905743,312.47697307880406,549.8679540660445,306.0938833005972,542.1765C299.71079352239036,534.4850459339556,293.3088649913474,537.0788348263964,286.92577822748643,533.059C280.5426914636255,529.0391651736036,274.17844646694664,518.4057066283701,267.80786857925125,524.126C261.43729069155586,529.8462933716298,255.06037991284393,551.9203386601231,248.689958931016,560C242.3195379491881,568.0796613398769,235.95560676424427,562.164938731137,229.5720492827808,560C223.18849180131733,557.835061268863,216.78530802333418,559.4199064153289,210.40176179989288,560C204.01821557645158,560.5800935846711,197.654306907552,560.1554356075476,191.28385215165764,560C184.91339739576327,559.8445643924524,178.53639655287404,559.9583511544806,172.16594250342243,560C165.79548845397082,560.0416488455194,159.43158119795683,560.01115977453,153.0480328551872,560C146.66448451241754,559.98884022547,140.26129508289227,559.9970097473996,133.87774537229927,560C127.49419566170627,560.0029902526004,121.1302856700455,560.0008012358713,114.75983572406406,560C108.38938577808263,559.9991987641287,102.01239587778048,559.9997853091152,95.64192607582882,560C89.27145627387716,560.0002146908848,82.90750657027597,560.000057527668,76.5240164275936,560C70.14052628491122,559.999942472332,63.737495703147644,559.9999845802126,57.353728944705665,560C50.969962186263686,560.0000154197874,44.60545925114327,560.0000041514812,38.235819296470446,560C31.866179341797615,559.9999958485188,25.491402367572366,559.9999988138625,19.117909648235223,560C12.74441692889808,560.0000011861375,6.37220846444904,560.0000005930688,0,560Z"><title>Disc</title></path><path fill="#ff7f0e" d="M0,560C6.372208464449036,559.9999857602597,12.744416928898072,559.9999715205195,19.117909648235223,560C25.491402367572373,560.0000284794805,31.866179341797626,560.0000996781819,38.235819296470446,560C44.605459251143266,559.9999003218181,50.96996218626366,559.999629766753,57.353728944705665,560C63.73749570314767,560.000370233247,70.14052628491125,560.001381254806,76.5240164275936,560C82.90750657027594,559.998618745194,89.27145627387712,559.9948452140231,95.64192607582882,560C102.01239587778052,560.0051547859769,108.38938577808266,560.0192378891018,114.75983572406406,560C121.13028567004547,559.9807621108982,127.49419566170621,559.9282032295695,133.87774537229927,560C140.26129508289233,560.0717967704305,146.66448451241757,560.2679491926202,153.0480328551872,560C159.4315811979568,559.7320508073798,165.7954884539708,558.9999999999495,172.16594250342243,559C178.53639655287407,559.0000000000505,184.9133973957633,559.7320508075815,191.28385215165764,560C197.65430690755198,560.2679491924185,204.01821557645158,560.0717967697249,210.40176179989288,560C216.78530802333418,559.9282032302751,223.18849180131735,559.9807621135193,229.5720492827808,560C235.95560676424424,560.0192378864807,242.31953794918815,560.0051547761981,248.689958931016,560C255.06037991284387,559.9948452238019,261.4372906915558,559.9986187816885,267.80786857925125,560C274.1784464669467,560.0013812183115,280.5426914636255,560.000370097048,286.92577822748643,560C293.3088649913474,559.999629902952,299.71079352239025,559.9999008301195,306.0938833005972,560C312.4769730788042,560.0000991698805,318.8412241041749,560.0000265824739,325.2117929488324,560C331.5823617934899,559.9999734175261,337.95924845743394,559.9999928399848,344.32970259706764,560C350.70015673670133,560.0000071600152,357.0641783520246,560.0000020575873,363.4476122453029,560C369.83104613858114,559.9999979424127,376.2338923098145,559.9999989296659,382.6178997281908,560C389.00190714656713,560.0000010703341,395.3670758120862,560.0000022237487,401.7379917862032,560C408.1089077603202,559.9999977762513,414.4855710430349,559.9999921753391,420.85590143443847,560C427.22623182584204,560.0000078246609,433.5902293259342,560.0000290748951,439.97381108267365,560C446.3573928394131,559.9999709251049,452.7605588527997,559.9998915250803,459.1440985655616,560C465.5276382783235,560.0001084749197,471.891551690461,560.0004048247833,478.26200821379683,560C484.6324647371327,559.9995951752167,491.0094643716666,559.9984891757863,497.379917862032,560C503.75037135239745,560.0015108242137,510.1142786985944,560.0056384720716,516.4978275102673,560C522.8813763219401,559.9943615279284,529.2845665990886,559.978956935927,535.6681149931552,560C542.0516633872218,560.021043064073,548.4155698982061,560.0785337842202,554.7860246413903,560C561.1564793845746,559.9214662157798,567.5334823599585,559.7069079271918,573.9039342896256,560C580.2743862192926,560.2930920728082,586.6382871032421,561.0938345070125,593.0218439378608,548.1345C599.4054007724795,535.1751654929875,605.8086135577676,508.4557540447582,612.1921314207488,494.79200000000003C618.57564928373,481.1282459552419,624.9394722244043,480.5201493139548,631.310041068984,472.9205C637.6806099135637,465.3208506860452,644.0579246620489,450.7296486994228,650.4279507172192,444.602C656.7979767723896,438.47435130057715,663.1607141342446,440.81025588835365,669.5436779556773,440.53849999999994C675.9266417771099,440.26674411164623,682.3298320581199,437.38732774716243,688.7139654385652,434.2655C695.0980988190105,431.1436722528375,701.4631752988911,427.77943312299624,707.8340574965775,430.307C714.204939694264,432.8345668770038,720.5816276097567,441.25393976085235,726.9519671448128,415.95349999999996C733.3223066798689,390.6530602391476,739.6862978344881,331.6328078335942,746.069876793048,310.44899533845C752.453455751608,289.2651828433058,758.856622514109,305.9178102585708,765.240164275936,309.771342484775C771.623706037763,313.6248747109792,777.9876227989164,304.6793117481227,784.3580739241711,321.685520281765C790.7285250494258,338.69172881540726,797.1055105387825,381.6497088455482,803.4759835724064,403.716802127825C809.8464566060304,425.7838954101018,816.2104171839218,426.9601019445143,822.5938932206417,430.41900959517994C828.9773692573616,433.8779172458456,835.3803607529096,439.6195260127645,841.7641807035295,447.379312942965C848.1480006541494,455.1390998731655,854.5126490598411,464.9170649666474,860.8820903517648,470.22196115775006C867.2515316436884,475.52685734885273,873.6257658218442,476.35868463757635,880,477.19051192629996L880,507.08541470921995C873.6257658218444,507.864261662835,867.2515316436885,508.6431086164501,860.8820903517648,506.5204459807C854.512649059841,504.3977833449499,848.1480006541493,499.3736111198346,841.7641807035295,496.45667065028C835.3803607529097,493.53973018072537,828.9773692573615,492.7300214667318,822.5938932206417,495.04693350188C816.2104171839219,497.3638455370282,809.8464566060304,502.80737832131837,803.4759835724064,484.590169710525C797.1055105387825,466.37296109973164,790.728525049426,424.4950110938548,784.3580739241711,411.044709385215C777.9876227989162,397.5944076765752,771.623706037763,412.57175426517256,765.240164275936,411.981865771325C758.856622514109,411.3919772774774,752.453455751608,395.2348537011851,746.069876793048,416.01697761695C739.6862978344881,436.7991015327149,733.3223066798687,494.5204729405373,726.9519671448128,517.5165C720.5816276097569,540.5125270594626,714.2049396942642,528.7832097705655,707.8340574965775,524.576C701.4631752988909,520.3687902294346,695.0980988190105,523.6836879772011,688.7139654385652,527.3655C682.3298320581199,531.0473120227989,675.9266417771098,535.0960383206304,669.5436779556773,534.5450000000001C663.1607141342447,533.9939616793697,656.7979767723895,528.8431587402774,650.4279507172192,528.336C644.057924662049,527.8288412597226,637.6806099135637,531.9653267182603,631.310041068984,530.6705C624.9394722244043,529.3756732817396,618.57564928373,522.6495343866814,612.1921314207488,527.1424999999999C605.8086135577676,531.6354656133185,599.4054007724797,547.347535735014,593.0218439378608,554.557C586.638287103242,561.766464264986,580.2743862192925,560.4733226732624,573.9039342896256,560C567.5334823599586,559.5266773267376,561.1564793845746,559.8731735719365,554.7860246413903,560C548.4155698982061,560.1268264280635,542.0516633872215,560.0339830389911,535.6681149931552,560C529.2845665990889,559.9660169610089,522.8813763219401,559.9908942720989,516.4978275102673,560C510.1142786985944,560.0091057279011,503.75037135239734,560.0024398726132,497.379917862032,560C491.0094643716667,559.9975601273868,484.6324647371326,559.9993462374483,478.26200821379683,560C471.8915516904611,560.0006537625517,465.52763827832354,560.0001751775936,459.1440985655616,560C452.76055885279965,559.9998248224064,446.35739283941297,559.9999530521773,439.97381108267365,560C433.59022932593433,560.0000469478227,427.22623182584204,560.0000126136973,420.85590143443847,560C414.4855710430349,559.9999873863027,408.1089077603201,559.9999964930328,401.7379917862032,560C395.36707581208634,560.0000035069672,389.00190714656713,560.0000014141713,382.6178997281908,560C376.2338923098145,559.9999985858287,369.83104613858114,559.9999978502818,363.4476122453029,560C357.0641783520246,560.0000021497182,350.70015673670133,560.0000071847016,344.32970259706764,560C337.95924845743394,559.9999928152984,331.58236179348984,559.9999734109114,325.2117929488324,560C318.84122410417496,560.0000265890886,312.47697307880406,560.0000991716529,306.0938833005972,560C299.71079352239036,559.9999008283471,293.3088649913474,559.999629902477,286.92577822748643,560C280.5426914636255,560.000370097523,274.17844646694664,560.0013812184387,267.80786857925125,560C261.43729069155586,559.9986187815613,255.06037991284393,559.9948452237678,248.689958931016,560C242.3195379491881,560.0051547762322,235.95560676424427,560.0192378864898,229.5720492827808,560C223.18849180131733,559.9807621135102,216.78530802333418,559.9282032302727,210.40176179989288,560C204.01821557645158,560.0717967697273,197.654306907552,560.2679491924192,191.28385215165764,560C184.91339739576327,559.7320508075808,178.53639655287404,559.0000000000501,172.16594250342243,559C165.79548845397082,558.9999999999499,159.43158119795683,559.7320508073798,153.0480328551872,560C146.66448451241754,560.2679491926202,140.26129508289227,560.0717967704305,133.87774537229927,560C127.49419566170627,559.9282032295695,121.1302856700455,559.980762110898,114.75983572406406,560C108.38938577808263,560.019237889102,102.01239587778048,560.0051547859769,95.64192607582882,560C89.27145627387716,559.9948452140231,82.90750657027597,559.998618745194,76.5240164275936,560C70.14052628491122,560.001381254806,63.737495703147644,560.0003702332469,57.353728944705665,560C50.969962186263686,559.9996297667531,44.60545925114327,559.9999003218181,38.235819296470446,560C31.866179341797615,560.0000996781819,25.491402367572366,560.0000284794805,19.117909648235223,560C12.74441692889808,559.9999715205195,6.37220846444904,559.9999857602597,0,560Z"><title>Download</title></path><path fill="#2ca02c" d="M0,560C6.372208464449036,559.99998576434,12.744416928898072,559.9999715286798,19.117909648235223,560C25.491402367572373,560.0000284713202,31.866179341797626,560.0000996496204,38.235819296470446,560C44.605459251143266,559.9999003503796,50.96996218626366,559.9996298728385,57.353728944705665,560C63.73749570314767,560.0003701271615,70.14052628491125,560.0013808590254,76.5240164275936,560C82.90750657027594,559.9986191409746,89.27145627387712,559.9948466910599,95.64192607582882,560C102.01239587778052,560.0051533089401,108.38938577808266,560.0192323767347,114.75983572406406,560C121.13028567004547,559.9807676232653,127.49419566170621,559.9282238020012,133.87774537229927,560C140.26129508289233,560.0717761979988,146.66448451241757,560.2678724152606,153.0480328551872,560C159.4315811979568,559.7321275847394,165.7954884539708,559.0002865369561,172.16594250342243,559C178.53639655287407,558.9997134630439,184.9133973957633,559.7309814369148,191.28385215165764,560C197.65430690755198,560.2690185630852,204.01821557645158,560.0757877153846,210.40176179989288,560C216.78530802333418,559.9242122846154,223.18849180131735,559.9658677015462,229.5720492827808,560C235.95560676424424,560.0341322984538,242.31953794918815,560.0607414784304,248.689958931016,560C255.06037991284387,559.9392585215696,261.4372906915558,559.7911663847322,267.80786857925125,560C274.1784464669467,560.2088336152678,280.5426914636255,560.7745929826411,286.92577822748643,560C293.3088649913474,559.2254070173589,299.71079352239025,557.1104616847034,306.0938833005972,555.961C312.4769730788042,554.8115383152966,318.8412241041749,554.627560278545,325.2117929488324,553.9695C331.5823617934899,553.311439721455,337.95924845743394,552.1792972011165,344.32970259706764,551.601C350.70015673670133,551.0227027988835,357.0641783520246,550.998250916989,363.4476122453029,550.6945000000001C369.83104613858114,550.3907490830111,376.2338923098145,549.8076991309275,382.6178997281908,549.3715000000001C389.00190714656713,548.9353008690726,395.3670758120862,548.6459525593017,401.7379917862032,548.6365C408.1089077603202,548.6270474406982,414.4855710430349,548.8974906318656,420.85590143443847,548.7765C427.22623182584204,548.6555093681345,433.5902293259342,548.1430849132362,439.97381108267365,547.7860000000001C446.3573928394131,547.4289150867639,452.7605588527997,547.2271697151901,459.1440985655616,545.2520000000001C465.5276382783235,543.27683028481,471.891551690461,539.5282362260034,478.26200821379683,539.1305C484.6324647371327,538.7327637739966,491.0094643716666,541.6858853807961,497.379917862032,543.726C503.75037135239745,545.7661146192039,510.1142786985944,546.8932222508123,516.4978275102673,547.2435C522.8813763219401,547.5937777491878,529.2845665990886,547.1672256159547,535.6681149931552,545.21C542.0516633872218,543.2527743840453,548.4155698982061,539.7648752853688,554.7860246413903,538.6765C561.1564793845746,537.5881247146312,567.5334823599585,538.8992732425708,573.9039342896256,536.428C580.2743862192926,533.9567267574292,586.6382871032421,527.7030317443483,593.0218439378608,525.655C599.4054007724795,523.6069682556516,605.8086135577676,525.7645997800361,612.1921314207488,528.1424999999999C618.57564928373,530.5204002199638,624.9394722244043,533.1185691355071,631.310041068984,531.6705C637.6806099135637,530.2224308644928,644.0579246620489,524.7281236779348,650.4279507172192,529.336C656.7979767723896,533.9438763220652,663.1607141342446,548.6539361527541,669.5436779556773,547.794C675.9266417771099,546.9340638472459,682.3298320581199,530.5041317110482,688.7139654385652,528.3655C695.0980988190105,526.2268682889518,701.4631752988911,538.3795370030529,707.8340574965775,542.732C714.204939694264,547.0844629969471,720.5816276097567,543.6367202767401,726.9519671448128,542.3924999999999C733.3223066798689,541.1482797232597,739.6862978344881,542.1075818899862,746.069876793048,542.321985717525C752.453455751608,542.5363895450637,758.856622514109,542.0058950334146,765.240164275936,540.944754260735C771.623706037763,539.8836134880553,777.9876227989164,538.2918264543451,784.3580739241711,540.32795575551C790.7285250494258,542.3640850566748,797.1055105387825,548.0281306927143,803.4759835724064,550.112992112845C809.8464566060304,552.1978535329756,816.2104171839218,550.7035307371971,822.5938932206417,550.286053380665C828.9773692573616,549.8685760241328,835.3803607529096,550.5279441068475,841.7641807035295,550.35513562057C848.1480006541494,550.1823271342924,854.5126490598411,549.1773420790229,860.8820903517648,548.857498659715C867.2515316436884,548.5376552404072,873.6257658218442,548.9029534570611,880,549.268251673715L880,560C873.6257658218444,559.9783470456009,867.2515316436885,559.9566940912017,860.8820903517648,560C854.512649059841,560.0433059087983,848.1480006541493,560.1515706807941,841.7641807035295,560C835.3803607529097,559.8484293192059,828.9773692573615,559.4370231856218,822.5938932206417,560C816.2104171839219,560.5629768143782,809.8464566060304,562.1003365767185,803.4759835724064,560C797.1055105387825,557.8996634232815,790.728525049426,552.1616305075041,784.3580739241711,550.2728829093501C777.9876227989162,548.384135311196,771.623706037763,550.3446730306647,765.240164275936,551.519870413735C758.856622514109,552.6950677968053,752.453455751608,553.0849248434768,746.069876793048,553.208686003245C739.6862978344881,553.3324471630133,733.3223066798687,553.1901124358785,726.9519671448128,554.66C720.5816276097569,556.1298875641214,714.2049396942642,559.2119974194992,707.8340574965775,555.808C701.4631752988909,552.4040025805008,695.0980988190105,542.5138978861244,688.7139654385652,543.02C682.3298320581199,543.5261021138756,675.9266417771098,554.4284110360034,669.5436779556773,555.8824999999999C663.1607141342447,557.3365889639965,656.7979767723895,549.3424579698622,650.4279507172192,546.4965C644.057924662049,543.6505420301378,637.6806099135637,545.952757084548,631.310041068984,547.6095C624.9394722244043,549.266242915452,618.57564928373,550.2775136919463,612.1921314207488,549.6465C605.8086135577676,549.0154863080536,599.4054007724797,546.7421881476671,593.0218439378608,547.1345C586.638287103242,547.5268118523329,580.2743862192925,550.584733717385,573.9039342896256,550.7044999999999C567.5334823599586,550.8242662826149,561.1564793845746,548.0058769827923,554.7860246413903,549.068C548.4155698982061,550.1301230172077,542.0516633872215,555.0727583514455,535.6681149931552,556.942C529.2845665990889,558.8112416485545,522.8813763219401,557.6070896114255,516.4978275102673,557.11C510.1142786985944,556.6129103885745,503.75037135239734,556.8228832028528,497.379917862032,556.9105C491.0094643716667,556.9981167971471,484.6324647371326,556.9633775771633,478.26200821379683,556.9105C471.8915516904611,556.8576224228366,465.52763827832354,556.7866064884931,459.1440985655616,556.5885000000001C452.76055885279965,556.390393511507,446.35739283941297,556.0651964688641,439.97381108267365,556.0495000000001C433.59022932593433,556.0338035311361,427.22623182584204,556.3276076360511,420.85590143443847,556.487C414.4855710430349,556.6463923639488,408.1089077603201,556.6713729869311,401.7379917862032,556.725C395.36707581208634,556.7786270130689,389.00190714656713,556.8609004162241,382.6178997281908,556.837C376.2338923098145,556.8130995837759,369.83104613858114,556.6830253481719,363.4476122453029,556.2035C357.0641783520246,555.723974651828,350.70015673670133,554.8949981910885,344.32970259706764,555.7344999999999C337.95924845743394,556.5740018089114,331.58236179348984,559.0819818874736,325.2117929488324,560C318.84122410417496,560.9180181125264,312.47697307880406,560.2460742590166,306.0938833005972,560C299.71079352239036,559.7539257409834,293.3088649913474,559.9337210764597,286.92577822748643,560C280.5426914636255,560.0662789235403,274.17844646694664,560.0190414351441,267.80786857925125,560C261.43729069155586,559.9809585648559,255.06037991284393,559.9901131829635,248.689958931016,560C242.3195379491881,560.0098868170365,235.95560676424427,560.020505833002,229.5720492827808,560C223.18849180131733,559.979494166998,216.78530802333418,559.9278634850288,210.40176179989288,560C204.01821557645158,560.0721365149712,197.654306907552,560.268040226883,191.28385215165764,560C184.91339739576327,559.731959773117,178.53639655287404,558.9999756074391,172.16594250342243,559C165.79548845397082,559.0000243925609,159.43158119795683,559.7320573433602,153.0480328551872,560C146.66448451241754,560.2679426566398,140.26129508289227,560.0717950191198,133.87774537229927,560C127.49419566170627,559.9282049808802,121.1302856700455,559.9807625801604,114.75983572406406,560C108.38938577808263,560.0192374198396,102.01239587778048,560.0051546602383,95.64192607582882,560C89.27145627387716,559.9948453397617,82.90750657027597,559.9986187788863,76.5240164275936,560C70.14052628491122,560.0013812211137,63.737495703147644,560.0003702242159,57.353728944705665,560C50.969962186263686,559.9996297757841,44.60545925114327,559.9999003242496,38.235819296470446,560C31.866179341797615,560.0000996757504,25.491402367572366,560.0000284787858,19.117909648235223,560C12.74441692889808,559.9999715212142,6.37220846444904,559.9999857606072,0,560Z"><title>Other</title></path><path fill="#d62728" d="M0,560C6.372208464449036,559.9999857549897,12.744416928898072,559.9999715099793,19.117909648235223,560C25.491402367572373,560.0000284900207,31.866179341797626,560.0000997150725,38.235819296470446,560C44.605459251143266,559.9999002849275,50.96996218626366,559.999629629731,57.353728944705665,560C63.73749570314767,560.000370370269,70.14052628491125,560.0013817660033,76.5240164275936,560C82.90750657027594,559.9986182339967,89.27145627387712,559.9948433062559,95.64192607582882,560C102.01239587778052,560.0051566937441,108.38938577808266,560.019245008973,114.75983572406406,560C121.13028567004547,559.980754991027,127.49419566170621,559.9281766578522,133.87774537229927,560C140.26129508289233,560.0718233421478,146.66448451241757,560.2680483596182,153.0480328551872,560C159.4315811979568,559.7319516403818,165.7954884539708,558.9996299036748,172.16594250342243,559C178.53639655287407,559.0003700963252,184.9133973957633,559.7334320256821,191.28385215165764,560C197.65430690755198,560.2665679743179,204.01821557645158,560.0666419935972,210.40176179989288,560C216.78530802333418,559.9333580064028,223.18849180131735,559.999999999929,229.5720492827808,560C235.95560676424424,560.000000000071,242.31953794918815,559.9333580066871,248.689958931016,560C255.06037991284387,560.0666419933129,261.4372906915558,560.2665679733227,267.80786857925125,560C274.1784464669467,559.7334320266773,280.5426914636255,559.0003701000218,286.92577822748643,559C293.3088649913474,558.9996298999782,299.71079352239025,559.7319516265896,306.0938833005972,560C312.4769730788042,560.2680483734104,318.8412241041749,560.0718233936193,325.2117929488324,560C331.5823617934899,559.9281766063807,337.95924845743394,559.980754798933,344.32970259706764,560C350.70015673670133,560.019245201067,357.0641783520246,560.0051574106483,363.4476122453029,560C369.83104613858114,559.9948425893517,376.2338923098145,559.9986155584738,382.6178997281908,560C389.00190714656713,560.0013844415262,395.3670758120862,560.0003803554564,401.7379917862032,560C408.1089077603202,559.9996196445436,414.4855710430349,559.9998630197005,420.85590143443847,560C427.22623182584204,560.0001369802995,433.5902293259342,560.0001675657414,439.97381108267365,560C446.3573928394131,559.9998324342586,452.7605588527997,559.9994667173335,459.1440985655616,560C465.5276382783235,560.0005332826665,471.891551690461,560.0019655649244,478.26200821379683,560C484.6324647371327,559.9980344350756,491.0094643716666,559.9926710229686,497.379917862032,560C503.75037135239745,560.0073289770314,510.1142786985944,560.0273503432012,516.4978275102673,560C522.8813763219401,559.9726496567988,529.2845665990886,559.8979276042265,535.6681149931552,560C542.0516633872218,560.1020723957735,548.4155698982061,560.3809392398923,554.7860246413903,560C561.1564793845746,559.6190607601077,567.5334823599585,558.5783154362043,573.9039342896256,559C580.2743862192926,559.4216845637957,586.6382871032421,561.3057990152906,593.0218439378608,559.7585C599.4054007724795,558.2112009847094,605.8086135577676,553.232488502633,612.1921314207488,550.6465C618.57564928373,548.0605114973669,624.9394722244043,547.8672469741772,631.310041068984,548.6095C637.6806099135637,549.3517530258229,644.0579246620489,551.0295236006582,650.4279507172192,547.4965C656.7979767723896,543.9634763993417,663.1607141342446,535.21965862319,669.5436779556773,535.5450000000001C675.9266417771099,535.8703413768102,682.3298320581199,545.264841906582,688.7139654385652,544.02C695.0980988190105,542.775158093418,701.4631752988911,530.8909737504821,707.8340574965775,525.576C714.204939694264,520.261026249518,720.5816276097567,521.5152630914894,726.9519671448128,518.5165C733.3223066798689,515.5177369085105,739.6862978344881,508.2659738835606,746.069876793048,505.173357835025C752.453455751608,502.0807417864894,758.856622514109,503.14727271436794,765.240164275936,489.03383009523503C771.623706037763,474.9203874761021,777.9876227989164,445.6269713099579,784.3580739241711,412.044709385215C790.7285250494258,378.4624474604721,797.1055105387825,340.5913397771306,803.4759835724064,321.12134026382506C809.8464566060304,301.6513407505195,816.2104171839218,300.5824494072499,822.5938932206417,290.7470351604799C828.9773692573616,280.91162091370995,835.3803607529096,262.3096837634395,841.7641807035295,248.12026376946494C848.1480006541494,233.93084377549036,854.5126490598411,224.15394093781148,860.8820903517648,211.38509112574997C867.2515316436884,198.61624131368845,873.6257658218442,182.8554445272442,880,167.09464774079996L880,476.19051192629996C873.6257658218444,475.6571171610173,867.2515316436885,475.1237223957346,860.8820903517648,469.22196115775006C854.512649059841,463.3201999197655,848.1480006541493,452.0500722090791,841.7641807035295,446.379312942965C835.3803607529097,440.7085536768509,828.9773692573615,440.6371628553091,822.5938932206417,429.41900959517994C816.2104171839219,418.2008563350508,809.8464566060304,395.8359406363345,803.4759835724064,402.716802127825C797.1055105387825,409.59766361931554,790.728525049426,445.72430230101276,784.3580739241711,476.00594828271494C777.9876227989162,506.2875942644171,771.623706037763,530.7242475461244,765.240164275936,539.944754260735C758.856622514109,549.1652609753455,752.453455751608,543.169621122859,746.069876793048,541.321985717525C739.6862978344881,539.474350312191,733.3223066798687,541.7747193540092,726.9519671448128,541.3924999999999C720.5816276097569,541.0102806459906,714.2049396942642,537.9454728961535,707.8340574965775,541.732C701.4631752988909,545.5185271038464,695.0980988190105,556.1563890613766,688.7139654385652,556.6795C682.3298320581199,557.2026109386234,675.9266417771098,547.61097085834,669.5436779556773,546.794C663.1607141342447,545.97702914166,656.7979767723895,553.9347275052634,650.4279507172192,556.9535C644.057924662049,559.9722724947366,637.6806099135637,558.052119120606,631.310041068984,556.9744999999999C624.9394722244043,555.8968808793938,618.57564928373,555.6617960123124,612.1921314207488,556.5825C605.8086135577676,557.5032039876876,599.4054007724797,559.5796968301444,593.0218439378608,560C586.638287103242,560.4203031698556,580.2743862192925,559.1844166671102,573.9039342896256,559C567.5334823599586,558.8155833328898,561.1564793845746,559.6826365014144,554.7860246413903,560C548.4155698982061,560.3173634985856,542.0516633872215,560.085037327232,535.6681149931552,560C529.2845665990889,559.914962672768,522.8813763219401,559.9772141896574,516.4978275102673,560C510.1142786985944,560.0227858103426,503.75037135239734,560.0061059141382,497.379917862032,560C491.0094643716667,559.9938940858618,484.6324647371326,559.9983621537901,478.26200821379683,560C471.8915516904611,560.0016378462099,465.52763827832354,560.0004454707015,459.1440985655616,560C452.76055885279965,559.9995545292985,446.35739283941297,559.9998559634035,439.97381108267365,560C433.59022932593433,560.0001440365965,427.22623182584204,560.0001306756841,420.85590143443847,560C414.4855710430349,559.9998693243159,408.1089077603201,559.9996213338602,401.7379917862032,560C395.36707581208634,560.0003786661398,389.00190714656713,560.0013839888751,382.6178997281908,560C376.2338923098145,559.9986160111249,369.83104613858114,559.9948427106392,363.4476122453029,560C357.0641783520246,560.0051572893608,350.70015673670133,560.019245168568,344.32970259706764,560C337.95924845743394,559.980754831432,331.58236179348984,559.9281766150888,325.2117929488324,560C318.84122410417496,560.0718233849112,312.47697307880406,560.2680483710769,306.0938833005972,560C299.71079352239036,559.7319516289231,293.3088649913474,558.9996299006033,286.92577822748643,559C280.5426914636255,559.0003700993967,274.17844646694664,559.7334320265097,267.80786857925125,560C261.43729069155586,560.2665679734903,255.06037991284393,560.0666419933578,248.689958931016,560C242.3195379491881,559.9333580066422,235.95560676424427,560.000000000059,229.5720492827808,560C223.18849180131733,559.999999999941,216.78530802333418,559.9333580064059,210.40176179989288,560C204.01821557645158,560.0666419935941,197.654306907552,560.2665679743172,191.28385215165764,560C184.91339739576327,559.7334320256828,178.53639655287404,559.0003700963252,172.16594250342243,559C165.79548845397082,558.9996299036748,159.43158119795683,559.7319516403818,153.0480328551872,560C146.66448451241754,560.2680483596182,140.26129508289227,560.0718233421478,133.87774537229927,560C127.49419566170627,559.9281766578522,121.1302856700455,559.9807549910271,114.75983572406406,560C108.38938577808263,560.0192450089729,102.01239587778048,560.0051566937441,95.64192607582882,560C89.27145627387716,559.9948433062559,82.90750657027597,559.9986182339968,76.5240164275936,560C70.14052628491122,560.0013817660032,63.737495703147644,560.0003703702689,57.353728944705665,560C50.969962186263686,559.9996296297311,44.60545925114327,559.9999002849275,38.235819296470446,560C31.866179341797615,560.0000997150725,25.491402367572366,560.0000284900207,19.117909648235223,560C12.74441692889808,559.9999715099793,6.37220846444904,559.9999857549897,0,560Z"><title>Streaming</title></path><path fill="#8c564b" d="M0,488.419C6.372208464449036,486.2490780072483,12.744416928898072,484.07915601449645,19.117909648235223,482.0105C25.491402367572373,479.9418439855035,31.866179341797626,477.97445394926274,38.235819296470446,475.4025C44.605459251143266,472.8305460507372,50.96996218626366,469.65402818845257,57.353728944705665,463.2015C63.73749570314767,456.74897181154745,70.14052628491125,447.02043329692685,76.5240164275936,436.472C82.90750657027594,425.9235667030731,89.27145627387712,414.55523862384,95.64192607582882,414.401C102.01239587778052,414.24676137616,108.38938577808266,425.3066122077131,114.75983572406406,430.3575C121.13028567004547,435.40838779228693,127.49419566170621,434.45031254530784,133.87774537229927,430.13C140.26129508289233,425.80968745469215,146.66448451241757,418.1271376110558,153.0480328551872,419.9135C159.4315811979568,421.6998623889442,165.7954884539708,432.9551370104688,172.16594250342243,430.99899999999997C178.53639655287407,429.04286298953116,184.9133973957633,413.8753143470689,191.28385215165764,425.476C197.65430690755198,437.0766856529311,204.01821557645158,475.4456056012556,210.40176179989288,490.722C216.78530802333418,505.9983943987444,223.18849180131735,498.18226324790896,229.5720492827808,490.715C235.95560676424424,483.247736752091,242.31953794918815,476.1293414071086,248.689958931016,484.058C255.06037991284387,491.9866585928914,261.4372906915558,514.9623711236569,267.80786857925125,525.126C274.1784464669467,535.289628876343,280.5426914636255,532.6411740982633,286.92577822748643,534.059C293.3088649913474,535.4768259017367,299.71079352239025,540.9609324832898,306.0938833005972,543.1765C312.4769730788042,545.3920675167103,318.8412241041749,544.3390959685777,325.2117929488324,546.638C331.5823617934899,548.9369040314224,337.95924845743394,554.5876836424,344.32970259706764,556.7344999999999C350.70015673670133,558.8813163575999,357.0641783520246,557.5241694618223,363.4476122453029,557.2035C369.83104613858114,556.8828305381776,376.2338923098145,557.5986385103101,382.6178997281908,557.837C389.00190714656713,558.0753614896898,395.3670758120862,557.8362764969371,401.7379917862032,557.725C408.1089077603202,557.6137235030629,414.4855710430349,557.6302555019419,420.85590143443847,557.487C427.22623182584204,557.3437444980581,433.5902293259342,557.040701495295,439.97381108267365,557.0495000000001C446.3573928394131,557.0582985047051,452.7605588527997,557.3789385168784,459.1440985655616,557.5885000000001C465.5276382783235,557.7980614831217,471.891551690461,557.8965444371916,478.26200821379683,557.9105C484.6324647371327,557.9244555628084,491.0094643716666,557.8538837343555,497.379917862032,557.9105C503.75037135239745,557.9671162656444,510.1142786985944,558.1509206253861,516.4978275102673,558.11C522.8813763219401,558.0690793746139,529.2845665990886,557.8034337641003,535.6681149931552,557.942C542.0516633872218,558.0805662358997,548.4155698982061,558.6233443182128,554.7860246413903,558.4110000000001C561.1564793845746,558.1986556817873,567.5334823599585,557.231188963049,573.9039342896256,556.4879999999999C580.2743862192926,555.7448110369509,586.6382871032421,555.2258998295911,593.0218439378608,555.557C599.4054007724795,555.888100170409,605.8086135577676,557.0692117185863,612.1921314207488,557.5825C618.57564928373,558.0957882814137,624.9394722244043,557.9412532960638,631.310041068984,557.9744999999999C637.6806099135637,558.007746703936,644.0579246620489,558.2287750971584,650.4279507172192,557.9535C656.7979767723896,557.6782249028415,663.1607141342446,556.9066463153023,669.5436779556773,556.8824999999999C675.9266417771099,556.8583536846976,682.3298320581199,557.581639641632,688.7139654385652,557.6795C695.0980988190105,557.7773603583679,701.4631752988911,557.2497951181693,707.8340574965775,556.808C714.204939694264,556.3662048818306,720.5816276097567,556.0101798856906,726.9519671448128,555.66C733.3223066798689,555.3098201143093,739.6862978344881,554.9654853390681,746.069876793048,554.208686003245C752.453455751608,553.451886667422,758.856622514109,552.2826227710162,765.240164275936,552.519870413735C771.623706037763,552.7571180564538,777.9876227989164,554.4008772382965,784.3580739241711,551.2728829093501C790.7285250494258,548.1448885804036,797.1055105387825,540.2451407406681,803.4759835724064,537.243345961475C809.8464566060304,534.2415511822819,816.2104171839218,536.1377094636307,822.5938932206417,536.67514840655C828.9773692573616,537.2125873494692,835.3803607529096,536.391306953959,841.7641807035295,535.54450334632C848.1480006541494,534.697699738681,854.5126490598411,533.8253729189131,860.8820903517648,532.99949871695C867.2515316436884,532.173624514987,873.6257658218442,531.3942029308284,880,530.61478134667L880,548.268251673715C873.6257658218444,547.9480708227557,867.2515316436885,547.6278899717964,860.8820903517648,547.857498659715C854.512649059841,548.0871073476336,848.1480006541493,548.8665055744302,841.7641807035295,549.35513562057C835.3803607529097,549.8437656667097,828.9773692573615,550.0416275321928,822.5938932206417,549.286053380665C816.2104171839219,548.5304792291371,809.8464566060304,546.8214690605988,803.4759835724064,549.112992112845C797.1055105387825,551.4045151650911,790.728525049426,557.6965714381219,784.3580739241711,560C777.9876227989162,562.3034285618781,771.623706037763,560.6182294126038,765.240164275936,560C758.856622514109,559.3817705873962,752.453455751608,559.8305109114625,746.069876793048,560C739.6862978344881,560.1694890885375,733.3223066798687,560.0597269415463,726.9519671448128,560C720.5816276097569,559.9402730584537,714.2049396942642,559.9305813223525,707.8340574965775,560C701.4631752988909,560.0694186776475,695.0980988190105,560.2179477690438,688.7139654385652,560C682.3298320581199,559.7820522309562,675.9266417771098,559.197627601473,669.5436779556773,558.9685000000001C663.1607141342447,558.7393723985272,656.7979767723895,558.8655418250646,650.4279507172192,558.895C644.057924662049,558.9244581749354,637.6806099135637,558.8572050982687,631.310041068984,558.8705C624.9394722244043,558.8837949017313,618.57564928373,558.9776377818607,612.1921314207488,558.5415C605.8086135577676,558.1053622181394,599.4054007724797,557.139243774288,593.0218439378608,556.929C586.638287103242,556.7187562257119,580.2743862192925,557.2643871209877,573.9039342896256,558C567.5334823599586,558.7356128790123,561.1564793845746,559.661207741761,554.7860246413903,560C548.4155698982061,560.338792258239,542.0516633872215,560.0907819119681,535.6681149931552,560C529.2845665990889,559.9092180880319,522.8813763219401,559.9756646103672,516.4978275102673,560C510.1142786985944,560.0243353896328,503.75037135239734,560.0065596465632,497.379917862032,560C491.0094643716667,559.9934403534368,484.6324647371326,559.9980968033797,478.26200821379683,560C471.8915516904611,560.0019031966203,465.52763827832354,560.0010531399179,459.1440985655616,560C452.76055885279965,559.9989468600821,446.35739283941297,559.9976906369488,439.97381108267365,560C433.59022932593433,560.0023093630512,427.22623182584204,560.0081843122867,420.85590143443847,560C414.4855710430349,559.9918156877133,408.1089077603201,559.9695721139041,401.7379917862032,560C395.36707581208634,560.0304278860959,389.00190714656713,560.1135272320971,382.6178997281908,560C376.2338923098145,559.8864727679029,369.83104613858114,559.5763189577076,363.4476122453029,560C357.0641783520246,560.4236810422924,350.70015673670133,561.5811969370727,344.32970259706764,560C337.95924845743394,558.4188030629273,331.58236179348984,554.0988932940014,325.2117929488324,552.9695C318.84122410417496,551.8401067059987,312.47697307880406,553.9012298869217,306.0938833005972,554.961C299.71079352239036,556.0207701130784,293.3088649913474,556.0791871583118,286.92577822748643,559C280.5426914636255,561.9208128416882,274.17844646694664,567.7040214798305,267.80786857925125,560C261.43729069155586,552.2959785201695,255.06037991284393,531.1047269223654,248.689958931016,526.4465C242.3195379491881,521.7882730776346,235.95560676424427,533.6630708307076,229.5720492827808,545.3675C223.18849180131733,557.0719291692923,216.78530802333418,568.6059897548041,210.40176179989288,555.3845C204.01821557645158,542.1630102451959,197.654306907552,504.185970150076,191.28385215165764,494.0165C184.91339739576327,483.847029849924,178.53639655287404,501.4851296448918,172.16594250342243,508.28249999999997C165.79548845397082,515.0798703551081,159.43158119795683,511.0365112703566,153.0480328551872,510.847C146.66448451241754,510.6574887296434,140.26129508289227,514.3218252736814,133.87774537229927,515.88C127.49419566170627,517.4381747263186,121.1302856700455,516.8901876349179,114.75983572406406,514.7284999999999C108.38938577808263,512.566812365082,102.01239587778048,508.7914241866467,95.64192607582882,510.077C89.27145627387716,511.3625758133533,82.90750657027597,517.7091156184954,76.5240164275936,521.879C70.14052628491122,526.0488843815046,63.737495703147644,528.0421133393723,57.353728944705665,529.985C50.969962186263686,531.9278866606277,44.60545925114327,533.8204310240152,38.235819296470446,534.78C31.866179341797615,535.7395689759848,25.491402367572366,535.766162564567,19.117909648235223,536.2605C12.74441692889808,536.7548374354329,6.37220846444904,537.7169187177165,0,538.679Z"><title>Vinyl</title></path></g><g id="xAxis" transform="translate(0,560)" fill="none" font-size="10" font-family="sans-serif" text-anchor="middle"><path class="domain" stroke="currentColor" d="M0,0H880"/><g class="tick" opacity="1" transform="translate(38.235819296470446,0)"><line stroke="currentColor" y2="6"/><text fill="currentColor" y="9" dy="0.71em">1975</text></g><g class="tick" opacity="1" transform="translate(133.87774537229927,0)"><line stroke="currentColor" y2="6"/><text fill="currentColor" y="9" dy="0.71em">1980</text></g><g class="tick" opacity="1" transform="translate(229.5720492827808,0)"><line stroke="currentColor" y2="6"/><text fill="currentColor" y="9" dy="0.71em">1985</text></g><g class="tick" opacity="1" transform="translate(325.2117929488324,0)"><line stroke="currentColor" y2="6"/><text fill="currentColor" y="9" dy="0.71em">1990</text></g><g class="tick" opacity="1" transform="translate(420.85590143443847,0)"><line stroke="currentColor" y2="6"/><text fill="currentColor" y="9" dy="0.71em">1995</text></g><g class="tick" opacity="1" transform="translate(516.4978275102673,0)"><line stroke="currentColor" y2="6"/><text fill="currentColor" y="9" dy="0.71em">2000</text></g><g class="tick" opacity="1" transform="translate(612.1921314207488,0)"><line stroke="currentColor" y2="6"/><text fill="currentColor" y="9" dy="0.71em">2005</text></g><g class="tick" opacity="1" transform="translate(707.8340574965775,0)"><line stroke="currentColor" y2="6"/><text fill="currentColor" y="9" dy="0.71em">2010</text></g><g class="tick" opacity="1" transform="translate(803.4759835724064,0)"><line stroke="currentColor" y2="6"/><text fill="currentColor" y="9" dy="0.71em">2015</text></g></g><text y="556" x="880" text-anchor="end" style="font-family: Arial, sans-serif; font-size: 12px; fill: rgb(123, 123, 123); font-weight: bold;">Year</text><text x="4" text-anchor="start" dominant-baseline="hanging" style="font-family: Arial, sans-serif; font-size: 12px; fill: rgb(123, 123, 123); font-weight: bold;">Revenues in millions</text><g id="labels"><text x="325.2117929488324" y="358.34175000000005" text-anchor="middle" alignment-baseline="middle" style="font-family: Arial, sans-serif; font-size: 10px; fill: black; font-weight: bold;">Tape</text><text x="516.4978275102673" y="289.42150000000004" text-anchor="middle" alignment-baseline="middle" style="font-family: Arial, sans-serif; font-size: 10px; fill: black; font-weight: bold;">Disc</text><text x="746.069876793048" y="363.2329864777" text-anchor="middle" alignment-baseline="middle" style="font-family: Arial, sans-serif; font-size: 10px; fill: black; font-weight: bold;">Download</text><text x="612.1921314207488" y="538.8945" text-anchor="middle" alignment-baseline="middle" style="font-family: Arial, sans-serif; font-size: 10px; fill: black; font-weight: bold;">Other</text><text x="880" y="321.6425798335499" text-anchor="end" alignment-baseline="middle" style="font-family: Arial, sans-serif; font-size: 10px; fill: black; font-weight: bold;">Streaming</text><text x="95.64192607582882" y="462.23900000000003" text-anchor="middle" alignment-baseline="middle" style="font-family: Arial, sans-serif; font-size: 10px; fill: black; font-weight: bold;">Vinyl</text></g></g><text x="4" y="4" style="font-family: Arial, sans-serif; font-size: 12px; fill: black; font-weight: bold; dominant-baseline: hanging;"/></g></g></svg>
